<svg width="211" height="216" viewBox="0 0 211 216" fill="none" xmlns="http://www.w3.org/2000/svg">
<path d="M210.4 0.600006C201.2 4.00001 158.2 16.9 144.6 29.4C131 41.9 109.5 74.2 137.8 93.1C153.1 103.3 158.5 82.8 159.5 78.5C163.9 60.3 201.5 9.80001 210.4 0.600006Z" fill="#007BB6"/>
<path d="M122.7 131.7C122.8 131 122.4 130.4 121.7 130.4C118.8 130.1 114.6 129.9 107 135.2C98.2 141.3 70.1 156.9 70.1 175.2C70.1 193.5 80.6 212.1 84 214.9C87.4 217.7 92.1 208.8 94.8 204.1C97.4 199.5 120.1 143.1 122.7 131.7Z" fill="#007BB6"/>
<path d="M58.5 20.9C62.9 14.6 72.5 3.90001 87.6 4.90001C102.7 5.80001 110.1 11.9 113.2 28.7C116.3 45.5 104.7 71.2 110.6 82.7C116.3 93.8 123.9 101.5 139 102.3C121.1 113 71.4 116.4 66.5 81.6C61.5 46.2 86.8 47.3 83.7 30.1C81.2 15.7 61.5 20 58.5 20.9Z" fill="#007BB6"/>
<path d="M61.9 93.4C17.3 113.9 130.5 118.1 158.2 113.9C123.3 127.1 -16.3 110.5 61.9 93.4Z" fill="#6DC0E2"/>
<path d="M43.6 92.3C-30.3 106.4 85.9 141 183.2 112.8C135.8 142.3 -93 119.6 43.6 92.3Z" fill="#6DC0E2"/>
</svg>
